<svg width="24.000000" height="24.000000" viewBox="0 0 24 24" fill="none" xmlns="http://www.w3.org/2000/svg" xmlns:xlink="http://www.w3.org/1999/xlink">
	<desc>
			Created with Pixso.
	</desc>
	<defs>
		<clipPath id="clip1_327">
			<rect width="24.000000" height="24.000000" fill="white" fill-opacity="0"/>
		</clipPath>
	</defs>
	<g clip-path="url(#clip1_327)">
		<g opacity="0.000000">
			<rect width="24.000000" height="24.000000" fill="#000000" fill-opacity="1.000000"/>
		</g>
		<path d="M18.04 8.76C18.25 8.76 18.43 8.68 18.58 8.54C18.71 8.4 18.79 8.22 18.79 8.02C18.79 7.8 18.71 7.63 18.58 7.49C18.43 7.34 18.25 7.27 18.04 7.27L5.94 7.27C5.74 7.27 5.56 7.34 5.41 7.49C5.27 7.63 5.2 7.8 5.2 8.02C5.2 8.22 5.27 8.4 5.41 8.54C5.56 8.68 5.74 8.76 5.94 8.76L18.04 8.76ZM18.04 12.74C18.25 12.74 18.43 12.67 18.58 12.53C18.71 12.38 18.79 12.2 18.79 12C18.79 11.79 18.71 11.61 18.58 11.46C18.43 11.3 18.25 11.23 18.04 11.23L5.94 11.23C5.74 11.23 5.56 11.3 5.41 11.46C5.27 11.61 5.2 11.79 5.2 12C5.2 12.2 5.27 12.38 5.41 12.53C5.56 12.67 5.74 12.74 5.94 12.74L18.04 12.74ZM18.04 16.73C18.25 16.73 18.43 16.65 18.58 16.51C18.71 16.37 18.79 16.19 18.79 15.98C18.79 15.77 18.71 15.6 18.58 15.46C18.43 15.31 18.25 15.24 18.04 15.24L5.94 15.24C5.74 15.24 5.56 15.31 5.41 15.46C5.27 15.6 5.2 15.77 5.2 15.98C5.2 16.19 5.27 16.37 5.41 16.51C5.56 16.65 5.74 16.73 5.94 16.73L18.04 16.73Z" fill="#FFFFFF" fill-opacity="0.901961" fill-rule="nonzero"/>
	</g>
</svg>
