<svg width="24.000000" height="24.000000" viewBox="0 0 24 24" fill="none" xmlns="http://www.w3.org/2000/svg" xmlns:xlink="http://www.w3.org/1999/xlink">
	<desc>
			Created with Pixso.
	</desc>
	<defs>
		<clipPath id="clip1_113">
			<rect width="24.000000" height="24.000000" fill="white" fill-opacity="0"/>
		</clipPath>
	</defs>
	<g clip-path="url(#clip1_113)">
		<g opacity="0.000000">
			<rect width="24.000000" height="24.000000" fill="#000000" fill-opacity="1.000000"/>
		</g>
		<mask id="mask1_115" mask-type="alpha" maskUnits="userSpaceOnUse" x="5.993652" y="6.000000" width="12.000000" height="12.000000">
			<path d="M7.2627 17.7822C6.97241 18.0726 6.50171 18.0726 6.21143 17.7822C5.92102 17.4919 5.92102 17.0212 6.21143 16.731L10.9424 12L6.21143 7.26904C5.92102 6.97876 5.92102 6.50806 6.21143 6.21777C6.50171 5.92737 6.97241 5.92737 7.2627 6.21777L11.9937 10.9487L16.7246 6.21777C17.0149 5.92737 17.4856 5.92737 17.7759 6.21777C18.0663 6.50806 18.0663 6.97876 17.7759 7.26904L7.2627 17.7822ZM17.7756 17.7822C18.0659 17.4919 18.0659 17.0212 17.7756 16.731L13.5703 12.5256L12.519 13.5769L16.7244 17.7822C17.0146 18.0725 17.4854 18.0725 17.7756 17.7822Z" clip-rule="evenodd" fill="#C4C4C4" fill-opacity="1.000000" fill-rule="evenodd"/>
		</mask>
		<g mask="url(#mask1_115)">
			<rect x="4.000000" y="4.000000" width="16.000000" height="16.000000" fill="#FFFFFF" fill-opacity="1.000000"/>
		</g>
	</g>
</svg>
