<svg width="19.000000" height="19.000000" viewBox="0 0 19 19" fill="none" xmlns="http://www.w3.org/2000/svg" xmlns:xlink="http://www.w3.org/1999/xlink">
	<desc>
			Created with Pixso.
	</desc>
	<defs>
		<clipPath id="clip1_1493">
			<rect width="19.000000" height="19.000000" fill="white" fill-opacity="0"/>
		</clipPath>
	</defs>
	<g clip-path="url(#clip1_1493)">
		<path d="M9.39 3.42C9.91 2.83 10.81 2.79 11.4 3.31C11.7 3.58 11.87 3.97 11.87 4.37L11.87 14.62C11.87 15.41 11.23 16.04 10.45 16.04C10.04 16.04 9.66 15.87 9.39 15.57L6.91 12.82L5.22 12.82C4.22 12.82 3.4 12.04 3.33 11.06L3.32 10.92L3.32 8.07C3.32 7.02 4.17 6.17 5.22 6.17L6.91 6.17L9.39 3.42ZM10.69 3.97C10.5 3.85 10.25 3.88 10.09 4.05L7.47 6.96C7.38 7.06 7.25 7.12 7.12 7.12L5.22 7.12C4.7 7.12 4.27 7.55 4.27 8.07L4.27 10.92C4.27 11.44 4.7 11.87 5.22 11.87L7.12 11.87C7.25 11.87 7.38 11.93 7.47 12.03L10.09 14.94C10.18 15.04 10.31 15.09 10.45 15.09C10.71 15.09 10.92 14.88 10.92 14.62L10.92 4.37C10.92 4.24 10.79 4.06 10.69 3.97ZM13.63 11.58L14.86 12.29C15.09 12.42 15.17 12.71 15.04 12.94C14.9 13.17 14.61 13.24 14.39 13.11L13.15 12.4C12.93 12.27 12.85 11.98 12.98 11.75C13.11 11.52 13.4 11.45 13.63 11.58ZM14.72 9.02C14.98 9.02 15.2 9.23 15.2 9.5C15.2 9.76 14.98 9.97 14.72 9.97L13.3 9.97C13.03 9.97 12.82 9.76 12.82 9.5C12.82 9.23 13.03 9.02 13.3 9.02L14.72 9.02ZM15.04 6.05C15.17 6.28 15.09 6.57 14.86 6.7L13.63 7.41C13.4 7.54 13.11 7.47 12.98 7.24C12.85 7.01 12.93 6.72 13.15 6.59L14.39 5.88C14.61 5.75 14.9 5.82 15.04 6.05Z" fill="#0A59F7" fill-opacity="1.000000" fill-rule="evenodd"/>
		<path d="M11.4 3.31C11.7 3.58 11.87 3.97 11.87 4.37L11.87 14.62C11.87 15.41 11.23 16.04 10.45 16.04C10.04 16.04 9.66 15.87 9.39 15.57L6.91 12.82L5.22 12.82C4.22 12.82 3.4 12.04 3.33 11.06L3.32 10.92L3.32 8.07C3.32 7.02 4.17 6.17 5.22 6.17L6.91 6.17L9.39 3.42C9.91 2.83 10.81 2.79 11.4 3.31ZM10.09 4.05L7.47 6.96C7.38 7.06 7.25 7.12 7.12 7.12L5.22 7.12C4.7 7.12 4.27 7.55 4.27 8.07L4.27 10.92C4.27 11.44 4.7 11.87 5.22 11.87L7.12 11.87C7.25 11.87 7.38 11.93 7.47 12.03L10.09 14.94C10.18 15.04 10.31 15.09 10.45 15.09C10.71 15.09 10.92 14.88 10.92 14.62L10.92 4.37C10.92 4.24 10.79 4.06 10.69 3.97C10.5 3.85 10.25 3.88 10.09 4.05ZM14.86 12.29C15.09 12.42 15.17 12.71 15.04 12.94C14.9 13.17 14.61 13.24 14.39 13.11L13.15 12.4C12.93 12.27 12.85 11.98 12.98 11.75C13.11 11.52 13.4 11.45 13.63 11.58L14.86 12.29ZM15.2 9.5C15.2 9.76 14.98 9.97 14.72 9.97L13.3 9.97C13.03 9.97 12.82 9.76 12.82 9.5C12.82 9.23 13.03 9.02 13.3 9.02L14.72 9.02C14.98 9.02 15.2 9.23 15.2 9.5ZM14.86 6.7L13.63 7.41C13.4 7.54 13.11 7.47 12.98 7.24C12.85 7.01 12.93 6.72 13.15 6.59L14.39 5.88C14.61 5.75 14.9 5.82 15.04 6.05C15.17 6.28 15.09 6.57 14.86 6.7Z" stroke="#000000" stroke-opacity="0" stroke-width="1.000000"/>
	</g>
</svg>
