<svg width="19.000000" height="19.000000" viewBox="0 0 19 19" fill="none" xmlns="http://www.w3.org/2000/svg" xmlns:xlink="http://www.w3.org/1999/xlink">
	<desc>
			Created with Pixso.
	</desc>
	<defs/>
	<g opacity="0.000000"/>
	<path d="M7.11 4.89C7.2 4.79 7.32 4.75 7.46 4.75C7.6 4.75 7.72 4.79 7.82 4.89L11.82 8.94C11.98 9.09 12.05 9.28 12.05 9.49C12.05 9.7 11.98 9.88 11.82 10.03L7.8 14.1C7.71 14.2 7.59 14.25 7.45 14.25C7.31 14.25 7.19 14.2 7.09 14.1C6.99 13.99 6.94 13.86 6.94 13.72C6.94 13.58 6.99 13.46 7.09 13.36L10.93 9.5L7.11 5.63C7 5.52 6.94 5.4 6.94 5.26C6.94 5.12 7 5 7.11 4.89Z" fill="#0A59F7" fill-opacity="1.000000" fill-rule="nonzero"/>
</svg>
