<svg width="16.000000" height="16.000000" viewBox="0 0 16 16" fill="none" xmlns="http://www.w3.org/2000/svg" xmlns:xlink="http://www.w3.org/1999/xlink">
	<desc>
			Created with Pixso.
	</desc>
	<defs/>
	<path d="M0 8C0 3.58 3.58 0 8 0C12.41 0 16 3.58 16 8C16 12.41 12.41 16 8 16C3.58 16 0 12.41 0 8ZM1 8C1 4.13 4.13 1 8 1C11.86 1 15 4.13 15 8C15 11.86 11.86 15 8 15C4.13 15 1 11.86 1 8ZM7 4C7 3.44 7.44 3 8 3C8.55 3 9 3.44 9 4L9 9C9 9.55 8.55 10 8 10C7.44 10 7 9.55 7 9L7 4ZM7 12C7 11.44 7.44 11 8 11C8.55 11 9 11.44 9 12C9 12.55 8.55 13 8 13C7.44 13 7 12.55 7 12Z" fill="#000000" fill-opacity="1.000000" fill-rule="evenodd"/>
</svg>
