<svg width="36.000000" height="36.000000" viewBox="0 0 36 36" fill="none" xmlns="http://www.w3.org/2000/svg" xmlns:xlink="http://www.w3.org/1999/xlink">
	<desc>
			Created with Pixso.
	</desc>
	<defs>
		<clipPath id="clip1_2160">
			<rect width="36.000000" height="36.000000" fill="white" fill-opacity="0"/>
		</clipPath>
	</defs>
	<g clip-path="url(#clip1_2160)">
		<path d="M30.58 2.69L30.58 2.69Q29.7 2.33 28.66 2.33L7.33 2.33C6.64 2.33 6 2.45 5.41 2.69C4.82 2.94 4.28 3.3 3.79 3.79C3.3 4.28 2.94 4.82 2.69 5.41C2.45 6 2.33 6.64 2.33 7.33L2.33 28.66C2.33 29.35 2.45 29.99 2.69 30.58C2.94 31.17 3.3 31.71 3.79 32.2C4.28 32.69 4.82 33.05 5.41 33.3C6 33.54 6.64 33.66 7.33 33.66L8.63 33.66C8.64 33.66 8.65 33.66 8.66 33.66L28.66 33.66C29.34 33.66 29.96 33.56 30.58 33.3C31.17 33.05 31.71 32.69 32.2 32.2C32.69 31.71 33.05 31.17 33.3 30.58C33.32 30.52 33.34 30.46 33.36 30.41C33.56 29.87 33.66 29.28 33.66 28.66L33.66 7.33C33.66 6.64 33.54 6 33.3 5.41C33.05 4.82 32.69 4.28 32.2 3.79C31.71 3.3 31.17 2.94 30.58 2.69ZM31.66 22.58L31.66 7.33Q31.66 5.83 30.91 5.08Q30.16 4.33 28.66 4.33L7.33 4.33Q5.83 4.33 5.08 5.08Q4.33 5.83 4.33 7.33L4.33 28.66Q4.33 30.16 5.08 30.91Q5.83 31.66 7.33 31.66L8.24 31.66L21.72 17.75C21.9 17.55 22.11 17.39 22.32 17.24C22.51 17.12 22.71 17.01 22.92 16.92C23.13 16.83 23.34 16.76 23.56 16.72C23.8 16.66 24.04 16.64 24.29 16.63C24.77 16.62 25.23 16.71 25.68 16.88C26.14 17.06 26.57 17.34 26.92 17.69L31.66 22.58ZM28.66 31.66L11.02 31.66L23.15 19.14C23.25 19.04 23.35 18.96 23.46 18.89C23.53 18.84 23.61 18.8 23.7 18.76Q23.83 18.71 23.96 18.68Q23.97 18.67 23.97 18.67C24.09 18.65 24.2 18.63 24.32 18.63C24.54 18.63 24.75 18.66 24.95 18.74C25.04 18.78 25.12 18.82 25.2 18.86C25.31 18.93 25.41 19 25.5 19.09L31.66 25.45L31.66 28.66C31.66 28.89 31.64 29.12 31.59 29.34C31.55 29.51 31.49 29.67 31.43 29.83C31.36 29.99 31.27 30.15 31.18 30.3C31.06 30.47 30.93 30.63 30.78 30.78C30.51 31.06 30.19 31.27 29.83 31.43C29.46 31.58 29.07 31.66 28.66 31.66ZM9.33 11.33C9.33 10.22 10.22 9.33 11.33 9.33C12.43 9.33 13.33 10.22 13.33 11.33C13.33 12.43 12.43 13.33 11.33 13.33C10.22 13.33 9.33 12.43 9.33 11.33Z" fill="#191919" fill-opacity="1.000000" fill-rule="evenodd"/>
	</g>
</svg>
