<svg width="24.000000" height="24.000000" viewBox="0 0 24 24" fill="none" xmlns="http://www.w3.org/2000/svg" xmlns:xlink="http://www.w3.org/1999/xlink">
	<desc>
			Created with Pixso.
	</desc>
	<defs/>
	<g opacity="0.400000">
		<path id="形状结合" d="M23 12C23 5.92487 18.0751 1 12 1C5.92493 1 1 5.92487 1 12C1 18.0751 5.92493 23 12 23C18.0751 23 23 18.0751 23 12ZM16.6384 8.1535L15.8429 7.35803C15.7697 7.28479 15.651 7.28479 15.5778 7.35803L11.9962 10.9396L8.41589 7.35925C8.34265 7.28601 8.22388 7.28601 8.15076 7.35925L7.35522 8.15472C7.28198 8.22797 7.28198 8.34668 7.35522 8.41992L10.9355 12.0002L7.35767 15.5781C7.28442 15.6514 7.28442 15.7701 7.35767 15.8433L8.1532 16.6388C8.22632 16.712 8.34509 16.712 8.41833 16.6388L11.9962 13.0609L11.9963 13.061L13.057 12.0003L13.0569 12.0002L16.6384 8.4187C16.7117 8.34546 16.7117 8.22675 16.6384 8.1535ZM12.7034 13.7681L15.5753 16.64C15.6486 16.7133 15.7672 16.7133 15.8405 16.64L16.636 15.8445C16.7092 15.7713 16.7092 15.6526 16.636 15.5793L13.764 12.7075L12.7034 13.7681Z" clip-rule="evenodd" fill="#000000" fill-opacity="0.000000" fill-rule="evenodd"/>
		<mask id="mask40_1980" mask-type="alpha" maskUnits="userSpaceOnUse" x="1.000000" y="1.000000" width="22.000000" height="22.000000">
			<path id="形状结合" d="M23 12C23 5.92487 18.0751 1 12 1C5.92493 1 1 5.92487 1 12C1 18.0751 5.92493 23 12 23C18.0751 23 23 18.0751 23 12ZM16.6384 8.1535L15.8429 7.35803C15.7697 7.28479 15.651 7.28479 15.5778 7.35803L11.9962 10.9396L8.41589 7.35925C8.34265 7.28601 8.22388 7.28601 8.15076 7.35925L7.35522 8.15472C7.28198 8.22797 7.28198 8.34668 7.35522 8.41992L10.9355 12.0002L7.35767 15.5781C7.28442 15.6514 7.28442 15.7701 7.35767 15.8433L8.1532 16.6388C8.22632 16.712 8.34509 16.712 8.41833 16.6388L11.9962 13.0609L11.9963 13.061L13.057 12.0003L13.0569 12.0002L16.6384 8.4187C16.7117 8.34546 16.7117 8.22675 16.6384 8.1535ZM12.7034 13.7681L15.5753 16.64C15.6486 16.7133 15.7672 16.7133 15.8405 16.64L16.636 15.8445C16.7092 15.7713 16.7092 15.6526 16.636 15.5793L13.764 12.7075L12.7034 13.7681Z" clip-rule="evenodd" fill="#C4C4C4" fill-opacity="1.000000" fill-rule="evenodd"/>
		</mask>
		<g mask="url(#mask40_1980)">
			<rect id="color/#000000" width="24.000000" height="24.000000" fill="#000000" fill-opacity="1.000000"/>
		</g>
	</g>
</svg>
