<svg width="24.000000" height="24.000000" viewBox="0 0 24 24" fill="none" xmlns="http://www.w3.org/2000/svg" xmlns:xlink="http://www.w3.org/1999/xlink">
	<desc>
			Created with Pixso.
	</desc>
	<defs>
		<clipPath id="clip1_890">
			<rect width="24.000000" height="24.000000" fill="white" fill-opacity="0"/>
		</clipPath>
	</defs>
	<g clip-path="url(#clip1_890)">
		<path d="M4.74 6.64L8.14 6.64L8.63 5.34C8.71 5.13 8.81 4.94 8.95 4.77C9.07 4.62 9.22 4.48 9.39 4.36C9.56 4.24 9.75 4.15 9.94 4.09C10.14 4.03 10.35 4 10.56 4L13.35 4C13.57 4 13.78 4.03 13.98 4.09C14.17 4.15 14.35 4.24 14.53 4.36C14.7 4.48 14.85 4.62 14.98 4.78C15.1 4.95 15.21 5.13 15.28 5.34L15.77 6.64L19.25 6.64C19.67 6.64 20 6.97 20 7.39C20 7.8 19.67 8.13 19.25 8.13L15.25 8.13C15.08 8.13 14.94 8.09 14.82 8.01C14.71 7.93 14.62 7.81 14.56 7.65L13.89 5.85C13.87 5.79 13.84 5.74 13.8 5.69C13.77 5.65 13.73 5.61 13.68 5.58C13.63 5.55 13.59 5.53 13.53 5.51C13.48 5.49 13.42 5.48 13.35 5.48L10.56 5.48C10.44 5.48 10.33 5.51 10.23 5.58C10.13 5.65 10.06 5.74 10.02 5.85L9.35 7.65C9.29 7.81 9.2 7.93 9.09 8.01C8.97 8.09 8.83 8.13 8.66 8.13L4.74 8.13C4.32 8.13 4 7.8 4 7.39C4 6.97 4.32 6.64 4.74 6.64ZM5.44 9.03L6.15 17.5C6.17 17.69 6.2 17.87 6.25 18.04C6.3 18.19 6.36 18.34 6.43 18.49C6.58 18.79 6.77 19.05 7.02 19.28C7.15 19.39 7.29 19.5 7.43 19.59C7.57 19.67 7.71 19.74 7.86 19.8C8.01 19.86 8.16 19.91 8.32 19.94C8.5 19.98 8.68 20 8.86 20L15.12 20C15.31 20 15.49 19.98 15.67 19.94C15.83 19.91 15.98 19.86 16.13 19.8C16.28 19.74 16.42 19.67 16.55 19.59C16.7 19.5 16.84 19.39 16.97 19.28C17.21 19.05 17.41 18.79 17.56 18.49C17.71 18.18 17.81 17.85 17.84 17.5L18.55 9.03L17.06 9.03L16.36 17.38C16.34 17.53 16.3 17.68 16.23 17.82C16.16 17.96 16.07 18.08 15.96 18.18C15.85 18.29 15.72 18.37 15.58 18.42C15.52 18.45 15.46 18.47 15.39 18.48C15.3 18.5 15.21 18.51 15.12 18.51L8.86 18.51C8.77 18.51 8.68 18.5 8.6 18.48C8.53 18.47 8.47 18.45 8.41 18.42C8.27 18.37 8.14 18.29 8.03 18.18C7.91 18.08 7.82 17.96 7.76 17.82C7.69 17.68 7.64 17.53 7.63 17.38L6.93 9.03L5.44 9.03ZM11.09 11.17L11.09 16.98C11.09 17.39 10.76 17.72 10.35 17.72C9.93 17.72 9.6 17.39 9.6 16.98L9.6 11.17C9.6 10.75 9.93 10.43 10.35 10.43C10.76 10.43 11.09 10.75 11.09 11.17ZM14.39 11.17C14.39 10.75 14.06 10.43 13.64 10.43C13.23 10.43 12.9 10.75 12.9 11.17L12.9 16.98C12.9 17.39 13.23 17.72 13.64 17.72C14.06 17.72 14.39 17.39 14.39 16.98L14.39 11.17Z" fill="#000000" fill-opacity="1.000000" fill-rule="evenodd"/>
	</g>
</svg>
