<svg width="24.000000" height="24.000000" viewBox="0 0 24 24" fill="none" xmlns="http://www.w3.org/2000/svg" xmlns:xlink="http://www.w3.org/1999/xlink">
	<desc>
			Created with Pixso.
	</desc>
	<defs>
		<clipPath id="clip1_294">
			<rect width="24.000000" height="24.000000" fill="white" fill-opacity="0"/>
		</clipPath>
	</defs>
	<g clip-path="url(#clip1_294)">
		<g opacity="0.000000"/>
		<path d="M8.5 7.25C8.01 7.25 7.6 7.42 7.25 7.76C6.91 8.1 6.73 8.52 6.73 9C6.73 9.47 6.91 9.89 7.25 10.24C7.6 10.58 8.01 10.75 8.5 10.75C8.97 10.75 9.38 10.58 9.72 10.24C10.07 9.89 10.25 9.47 10.25 9C10.25 8.52 10.07 8.1 9.72 7.76C9.38 7.42 8.97 7.25 8.5 7.25ZM5.92 1.98C5.22 1.98 4.56 2.16 3.95 2.52C3.35 2.87 2.87 3.35 2.51 3.95C2.16 4.56 1.98 5.22 1.98 5.92L1.98 18.04C1.98 18.77 2.16 19.43 2.51 20.04C2.87 20.64 3.35 21.12 3.95 21.48C4.56 21.83 5.22 22.01 5.92 22.01L18.07 22.01C18.77 22.01 19.43 21.83 20.03 21.48C20.63 21.12 21.1 20.64 21.46 20.04C21.8 19.43 21.98 18.77 21.98 18.04L21.98 5.92C21.98 5.22 21.8 4.56 21.46 3.95C21.1 3.35 20.63 2.87 20.03 2.52C19.43 2.16 18.77 1.98 18.07 1.98L5.92 1.98ZM3.5 5.92C3.5 5.24 3.73 4.66 4.2 4.19C4.68 3.73 5.25 3.5 5.92 3.5L18.07 3.5C18.74 3.5 19.31 3.73 19.79 4.2C20.26 4.68 20.5 5.25 20.5 5.92L20.5 14.35L16.7 11.11C16.25 10.71 15.73 10.5 15.14 10.48C14.55 10.45 14.02 10.61 13.54 10.97L3.5 18.29L3.5 18.04L3.5 5.92ZM5.92 20.5C5.57 20.5 5.24 20.42 4.92 20.28C4.61 20.13 4.34 19.93 4.13 19.7L14.42 12.18C14.63 12.05 14.86 11.98 15.1 11.99C15.34 11.99 15.54 12.08 15.72 12.24L20.5 16.31L20.5 18.04C20.5 18.72 20.26 19.29 19.79 19.78C19.31 20.26 18.74 20.5 18.07 20.5L5.92 20.5Z" fill="#000000" fill-opacity="1.000000" fill-rule="nonzero"/>
	</g>
</svg>
