<svg width="36.000000" height="36.000000" viewBox="0 0 36 36" fill="none" xmlns="http://www.w3.org/2000/svg" xmlns:xlink="http://www.w3.org/1999/xlink">
	<desc>
			Created with Pixso.
	</desc>
	<defs>
		<clipPath id="clip1_2190">
			<rect width="36.000000" height="36.000000" fill="white" fill-opacity="0"/>
		</clipPath>
	</defs>
	<g clip-path="url(#clip1_2190)">
		<path d="M13.66 28C13.66 28.46 13.61 28.9 13.51 29.34C13.44 29.63 13.35 29.91 13.23 30.19C13.08 30.56 12.9 30.91 12.68 31.23C12.49 31.5 12.29 31.75 12.05 31.99C11.78 32.28 11.48 32.53 11.15 32.74C10.88 32.92 10.59 33.08 10.28 33.21C10 33.33 9.71 33.43 9.42 33.5C8.99 33.61 8.54 33.66 8.08 33.66C7.66 33.66 7.25 33.62 6.85 33.53C6.52 33.46 6.19 33.35 5.87 33.22C5.55 33.08 5.25 32.92 4.96 32.73C4.64 32.52 4.35 32.28 4.07 32C3.8 31.73 3.56 31.43 3.35 31.11C3.16 30.83 2.99 30.52 2.86 30.2C2.72 29.88 2.62 29.55 2.54 29.22C2.46 28.82 2.41 28.41 2.41 28C2.41 27.58 2.46 27.17 2.54 26.77C2.62 26.44 2.72 26.11 2.86 25.79C2.99 25.47 3.16 25.16 3.35 24.88C3.56 24.56 3.8 24.26 4.07 23.99C4.35 23.71 4.64 23.47 4.96 23.26C5.25 23.07 5.55 22.91 5.87 22.77C6.19 22.64 6.52 22.53 6.85 22.46C7.25 22.37 7.66 22.33 8.08 22.33C8.56 22.33 9.03 22.39 9.48 22.5C9.8 22.59 10.11 22.7 10.42 22.84C10.93 23.07 11.14 23.66 10.91 24.17C10.67 24.67 10.09 24.89 9.58 24.65Q9.32 24.54 9.05 24.46C8.74 24.37 8.42 24.33 8.08 24.33C7.8 24.33 7.52 24.36 7.25 24.42C7.05 24.47 6.85 24.53 6.65 24.62C6.45 24.7 6.26 24.8 6.08 24.92C5.87 25.06 5.67 25.22 5.49 25.4C5.3 25.58 5.14 25.78 5.01 25.99C4.89 26.17 4.79 26.37 4.7 26.57Q4.58 26.86 4.51 27.16L4.51 27.16Q4.51 27.16 4.51 27.17C4.44 27.44 4.41 27.71 4.41 28C4.41 28.28 4.44 28.55 4.51 28.82C4.55 29.03 4.62 29.23 4.7 29.42C4.79 29.62 4.89 29.82 5.01 30C5.14 30.21 5.3 30.41 5.49 30.59C5.67 30.77 5.87 30.93 6.08 31.07C6.26 31.19 6.45 31.29 6.65 31.37C6.85 31.46 7.05 31.52 7.25 31.57C7.52 31.63 7.8 31.66 8.08 31.66C8.4 31.66 8.72 31.62 9.02 31.54Q9.26 31.47 9.49 31.38C9.68 31.3 9.85 31.2 10.02 31.09C10.24 30.95 10.44 30.79 10.62 30.6Q10.83 30.38 11 30.13Q11.01 30.13 11.01 30.13L11.01 30.13Q11.23 29.8 11.38 29.43C11.45 29.28 11.5 29.12 11.54 28.95C11.62 28.64 11.66 28.33 11.66 28L11.66 9.4C11.66 9.08 11.69 8.76 11.75 8.45C11.8 8.18 11.88 7.91 11.98 7.65C12.07 7.39 12.19 7.14 12.33 6.9C12.48 6.64 12.65 6.4 12.85 6.16C13.04 5.93 13.26 5.72 13.49 5.53C13.7 5.36 13.93 5.2 14.17 5.06C14.41 4.92 14.66 4.8 14.92 4.71C15.22 4.6 15.53 4.52 15.84 4.46L27.84 2.45C28.22 2.38 28.59 2.36 28.96 2.39C29.25 2.4 29.54 2.45 29.83 2.52C30.13 2.59 30.42 2.69 30.7 2.81C31 2.95 31.29 3.11 31.57 3.31C31.85 3.51 32.1 3.73 32.33 3.98C32.54 4.2 32.72 4.45 32.89 4.71C33.05 4.97 33.19 5.24 33.3 5.52C33.44 5.85 33.53 6.2 33.59 6.56C33.62 6.7 33.63 6.83 33.65 6.97C33.66 7.11 33.66 7.24 33.66 7.38L33.66 23.61C33.66 24.07 33.61 24.52 33.51 24.95C33.44 25.24 33.35 25.52 33.23 25.8C33.08 26.17 32.9 26.52 32.68 26.84C32.49 27.11 32.29 27.37 32.05 27.6C31.78 27.89 31.48 28.14 31.15 28.35C30.88 28.53 30.59 28.69 30.28 28.82C30 28.94 29.71 29.04 29.42 29.11C28.99 29.22 28.54 29.27 28.08 29.27C27.66 29.27 27.25 29.23 26.85 29.14C26.52 29.07 26.19 28.96 25.87 28.83C25.55 28.69 25.25 28.53 24.96 28.34C24.64 28.13 24.35 27.89 24.07 27.61C23.8 27.34 23.56 27.04 23.35 26.72C23.16 26.44 22.99 26.13 22.86 25.81C22.72 25.49 22.62 25.16 22.54 24.83C22.46 24.43 22.41 24.02 22.41 23.61C22.41 23.19 22.46 22.78 22.54 22.38C22.62 22.05 22.72 21.72 22.86 21.4C22.99 21.08 23.16 20.77 23.35 20.49C23.56 20.17 23.8 19.87 24.07 19.6C24.35 19.32 24.64 19.08 24.96 18.87C25.25 18.68 25.55 18.52 25.87 18.38C26.19 18.25 26.52 18.14 26.85 18.07C27.25 17.98 27.66 17.94 28.08 17.94C28.56 17.94 29.03 18 29.48 18.11L29.49 18.12Q29.97 18.24 30.42 18.45C30.93 18.68 31.14 19.27 30.91 19.78C30.67 20.29 30.09 20.5 29.58 20.26C29.41 20.19 29.23 20.12 29.05 20.07C28.74 19.98 28.42 19.94 28.08 19.94C27.8 19.94 27.52 19.97 27.25 20.03L27.25 20.03Q26.95 20.1 26.65 20.23C26.45 20.31 26.26 20.41 26.08 20.53C25.87 20.67 25.67 20.83 25.49 21.01C25.3 21.2 25.14 21.39 25.01 21.6C24.89 21.79 24.79 21.98 24.7 22.18Q24.58 22.47 24.51 22.77L24.51 22.77Q24.51 22.78 24.51 22.78C24.44 23.05 24.41 23.32 24.41 23.61C24.41 23.89 24.44 24.16 24.51 24.43Q24.51 24.44 24.51 24.44L24.51 24.44Q24.58 24.74 24.7 25.03C24.79 25.23 24.89 25.43 25.01 25.61C25.14 25.82 25.3 26.02 25.49 26.2C25.67 26.38 25.87 26.54 26.08 26.68C26.26 26.8 26.45 26.9 26.65 26.98Q26.94 27.11 27.25 27.18L27.25 27.18Q27.25 27.18 27.25 27.18C27.52 27.24 27.8 27.27 28.08 27.27Q28.57 27.27 29.02 27.15L29.02 27.15C29.18 27.11 29.34 27.05 29.49 26.99C29.68 26.91 29.85 26.81 30.02 26.7C30.24 26.56 30.44 26.4 30.62 26.21C30.76 26.06 30.89 25.91 31 25.74C31.15 25.53 31.28 25.29 31.38 25.04C31.45 24.89 31.5 24.73 31.54 24.56C31.62 24.26 31.66 23.94 31.66 23.61L31.66 23.61L31.66 7.38C31.66 7.3 31.66 7.22 31.65 7.13C31.65 7.05 31.64 6.97 31.62 6.89C31.58 6.66 31.52 6.44 31.43 6.23C31.37 6.07 31.29 5.92 31.2 5.78C31.1 5.62 31 5.48 30.88 5.35C30.74 5.2 30.58 5.06 30.41 4.94C30.24 4.82 30.05 4.71 29.86 4.63C29.7 4.56 29.54 4.5 29.36 4.46C29.18 4.42 29.01 4.39 28.83 4.38C28.61 4.37 28.39 4.38 28.17 4.42L16.17 6.44C15.97 6.47 15.78 6.52 15.6 6.59Q15.38 6.68 15.17 6.79C15.03 6.88 14.89 6.97 14.77 7.07C14.63 7.19 14.49 7.31 14.37 7.46C14.25 7.6 14.15 7.75 14.06 7.91C13.98 8.05 13.91 8.2 13.85 8.35Q13.77 8.57 13.72 8.8C13.68 9 13.66 9.2 13.66 9.4L13.66 28ZM15.84 11.21L29.19 8.5C29.74 8.39 30.26 8.73 30.37 9.28C30.48 9.83 30.14 10.35 29.59 10.46L16.23 13.17C15.68 13.28 15.17 12.94 15.05 12.39C14.94 11.84 15.29 11.32 15.84 11.21Z" fill="#191919" fill-opacity="1.000000" fill-rule="evenodd"/>
	</g>
</svg>
