<svg width="24.000000" height="24.000000" viewBox="0 0 24 24" fill="none" xmlns="http://www.w3.org/2000/svg" xmlns:xlink="http://www.w3.org/1999/xlink">
	<desc>
			Created with Pixso.
	</desc>
	<defs>
		<clipPath id="clip1_413">
			<rect width="24.000000" height="24.000000" fill="white" fill-opacity="0"/>
		</clipPath>
	</defs>
	<g clip-path="url(#clip1_413)">
		<path d="M16.39 8.73C17.66 9.56 18.72 10.83 19.57 12.52C19.76 12.89 20.21 13.04 20.58 12.85C20.96 12.66 21.1 12.22 20.91 11.84C19.93 9.91 18.7 8.46 17.22 7.48C16.9 7.27 16.58 7.08 16.24 6.92C14.98 6.3 13.56 6 12 6C10.43 6 9.02 6.3 7.75 6.92C7.42 7.08 7.09 7.27 6.77 7.48C5.29 8.46 4.06 9.91 3.08 11.84C3.02 11.95 3 12.07 3 12.18C3 12.29 3.02 12.41 3.08 12.52C4.06 14.45 5.29 15.9 6.77 16.88C7.09 17.09 7.42 17.28 7.75 17.44C9.02 18.06 10.43 18.37 12 18.37C13.55 18.37 14.95 18.06 16.21 17.45C16.24 17.44 16.27 17.42 16.3 17.41C16.36 17.38 16.42 17.35 16.48 17.32C17.69 16.68 18.75 15.76 19.66 14.56C19.91 14.22 19.84 13.76 19.51 13.51C19.17 13.25 18.71 13.32 18.46 13.65C17.65 14.73 16.71 15.53 15.64 16.07C14.56 16.6 13.35 16.87 12 16.87C10.58 16.87 9.32 16.57 8.21 15.99C8 15.88 7.8 15.76 7.6 15.63C6.42 14.85 5.42 13.7 4.6 12.18C5.42 10.66 6.42 9.51 7.6 8.73C7.8 8.6 8 8.48 8.21 8.37C9.32 7.79 10.58 7.49 12 7.49C13.41 7.49 14.67 7.79 15.78 8.37C15.99 8.48 16.19 8.6 16.39 8.73ZM12.76 8.7C12.51 8.65 12.26 8.62 12 8.62C11.73 8.62 11.48 8.65 11.23 8.7C11.02 8.75 10.81 8.81 10.61 8.9C10.41 8.98 10.22 9.09 10.04 9.21C9.84 9.34 9.65 9.49 9.48 9.66C9.31 9.83 9.15 10.02 9.02 10.22C8.9 10.4 8.8 10.59 8.72 10.79C8.63 11 8.56 11.2 8.52 11.41C8.46 11.66 8.44 11.92 8.44 12.18C8.44 12.44 8.46 12.7 8.52 12.95C8.56 13.16 8.63 13.36 8.72 13.57C8.9 13.99 9.15 14.37 9.48 14.7C9.81 15.03 10.18 15.28 10.61 15.46C11.05 15.65 11.51 15.74 12 15.74C12.26 15.74 12.51 15.71 12.76 15.66C12.97 15.61 13.18 15.55 13.38 15.46C13.81 15.28 14.19 15.03 14.51 14.7C14.69 14.53 14.84 14.34 14.97 14.14C15.09 13.96 15.19 13.77 15.28 13.57C15.46 13.12 15.56 12.66 15.56 12.18C15.56 11.92 15.53 11.66 15.48 11.41C15.43 11.2 15.36 11 15.28 10.79C15.19 10.59 15.09 10.4 14.97 10.22C14.84 10.02 14.69 9.83 14.51 9.66C14.34 9.49 14.16 9.34 13.96 9.21C13.78 9.09 13.59 8.98 13.38 8.9C13.18 8.81 12.97 8.75 12.76 8.7ZM11.19 10.28C11.45 10.17 11.72 10.12 12 10.12C12.16 10.12 12.31 10.14 12.47 10.17C12.58 10.2 12.69 10.23 12.8 10.28C13.05 10.38 13.26 10.53 13.45 10.72C13.56 10.83 13.65 10.94 13.73 11.06C13.79 11.16 13.85 11.26 13.9 11.38C14 11.63 14.06 11.9 14.06 12.18C14.06 12.34 14.04 12.5 14 12.65C13.98 12.76 13.94 12.87 13.9 12.98C13.79 13.23 13.64 13.45 13.45 13.64C13.26 13.83 13.05 13.98 12.8 14.08C12.54 14.19 12.28 14.24 12 14.24C11.84 14.24 11.68 14.22 11.53 14.19C11.41 14.16 11.3 14.13 11.19 14.08C10.95 13.98 10.73 13.83 10.54 13.64C10.35 13.45 10.2 13.23 10.1 12.98C9.99 12.73 9.93 12.46 9.93 12.18C9.93 12.02 9.95 11.86 9.99 11.71C10.01 11.6 10.05 11.49 10.1 11.38C10.14 11.26 10.2 11.16 10.27 11.06C10.34 10.94 10.44 10.83 10.54 10.72C10.73 10.53 10.95 10.38 11.19 10.28Z" fill="#FFFFFF" fill-opacity="1.000000" fill-rule="evenodd"/>
	</g>
</svg>
