<svg width="36.000000" height="36.000000" viewBox="0 0 36 36" fill="none" xmlns="http://www.w3.org/2000/svg" xmlns:xlink="http://www.w3.org/1999/xlink">
	<desc>
			Created with Pixso.
	</desc>
	<defs>
		<clipPath id="clip1_1816">
			<rect width="36.000000" height="36.000000" fill="white" fill-opacity="0"/>
		</clipPath>
	</defs>
	<g clip-path="url(#clip1_1816)">
		<path d="M6.75 5L7 5L7 5L8.5 5L8.5 5L26.99 5L26.99 5L28.49 5L28.49 5L28.74 5Q29.73 5 30.57 5.34L30.57 5.34C31.13 5.58 31.64 5.92 32.1 6.39C32.57 6.85 32.91 7.36 33.15 7.92C33.38 8.48 33.49 9.09 33.49 9.75L33.49 27.08C33.49 27.74 33.38 28.34 33.15 28.9C32.91 29.46 32.57 29.97 32.1 30.44C31.64 30.9 31.13 31.25 30.57 31.48C30.01 31.71 29.4 31.83 28.74 31.83L6.75 31.83C6.09 31.83 5.48 31.71 4.92 31.48C4.36 31.25 3.85 30.9 3.39 30.44Q2.69 29.74 2.34 28.9Q2 28.06 2 27.08L2 9.75C2 9.09 2.11 8.48 2.34 7.92C2.57 7.36 2.92 6.85 3.39 6.39C3.85 5.92 4.36 5.58 4.92 5.34C5.48 5.11 6.09 5 6.75 5ZM6.75 6.5L7 6.5L7 13.66L3.5 13.66L3.5 9.75C3.5 9.3 3.57 8.88 3.73 8.5C3.89 8.12 4.13 7.77 4.45 7.45C4.76 7.13 5.11 6.89 5.5 6.73L5.5 6.73Q6.07 6.5 6.75 6.5ZM8.5 6.5L8.5 30.33L26.99 30.33L26.99 6.5L8.5 6.5ZM31.99 9.75L31.99 13.66L28.49 13.66L28.49 6.5L28.74 6.5C29.19 6.5 29.61 6.58 29.99 6.73C30.38 6.89 30.73 7.13 31.04 7.45C31.36 7.77 31.6 8.12 31.76 8.5C31.92 8.88 31.99 9.3 31.99 9.75ZM17.34 22.33C17.16 22.44 16.97 22.51 16.76 22.53C16.56 22.56 16.36 22.55 16.17 22.5C15.97 22.45 15.79 22.37 15.63 22.25Q15.51 22.16 15.41 22.06Q15.3 21.94 15.22 21.8C15.14 21.67 15.09 21.55 15.05 21.41C15.01 21.28 14.99 21.14 14.99 21L14.99 15.83C14.99 15.62 15.04 15.41 15.12 15.22C15.2 15.04 15.31 14.87 15.45 14.73C15.52 14.66 15.6 14.59 15.69 14.53C15.77 14.48 15.85 14.44 15.94 14.4C16.03 14.36 16.12 14.33 16.22 14.31C16.33 14.29 16.43 14.28 16.54 14.28C16.69 14.28 16.83 14.29 16.96 14.33C17.09 14.37 17.22 14.42 17.34 14.5L21.65 17.08C21.75 17.14 21.84 17.21 21.92 17.28C21.99 17.35 22.05 17.42 22.11 17.5C22.17 17.58 22.22 17.66 22.26 17.75C22.3 17.84 22.34 17.94 22.36 18.04Q22.4 18.19 22.41 18.34L22.41 18.34C22.41 18.44 22.41 18.53 22.39 18.63Q22.37 18.78 22.32 18.91C22.29 19.02 22.24 19.12 22.19 19.21C22.12 19.32 22.04 19.42 21.95 19.51C21.86 19.6 21.76 19.68 21.65 19.74L17.34 22.33ZM3.5 21.66L3.5 15.16L7 15.16L7 21.66L3.5 21.66ZM31.99 15.16L31.99 21.66L28.49 21.66L28.49 15.16L31.99 15.16ZM16.57 21.04L20.88 18.46L16.49 15.83L16.57 21.04ZM3.5 27.08L3.5 23.16L7 23.16L7 30.33L6.75 30.33C6.3 30.33 5.88 30.25 5.5 30.09C5.11 29.93 4.76 29.69 4.45 29.38C3.81 28.74 3.5 27.98 3.5 27.08ZM28.74 30.33L28.49 30.33L28.49 23.16L31.99 23.16L31.99 27.08C31.99 29.25 30.91 30.33 28.74 30.33Z" fill="#000000" fill-opacity="1.000000" fill-rule="evenodd"/>
	</g>
</svg>
