<svg width="16.000000" height="16.000000" viewBox="0 0 16 16" fill="none" xmlns="http://www.w3.org/2000/svg" xmlns:xlink="http://www.w3.org/1999/xlink">
	<desc>
			Created with Pixso.
	</desc>
	<defs>
		<clipPath id="clip1_337">
			<rect width="16.000000" height="16.000000" fill="white" fill-opacity="0"/>
		</clipPath>
	</defs>
	<g clip-path="url(#clip1_337)">
		<path d="M0 8C0 3.58 3.58 0 8 0C12.41 0 16 3.58 16 8C16 12.41 12.41 16 8 16C3.58 16 0 12.41 0 8ZM1 8C1 4.13 4.13 1 8 1C11.86 1 15 4.13 15 8C15 11.86 11.86 15 8 15C4.13 15 1 11.86 1 8ZM5.52 11.53C5.22 11.82 4.75 11.82 4.45 11.53C4.16 11.23 4.16 10.76 4.45 10.47L6.93 7.99L4.45 5.52C4.16 5.22 4.16 4.75 4.45 4.45C4.75 4.16 5.22 4.16 5.52 4.45L7.99 6.93L10.47 4.45C10.76 4.16 11.23 4.16 11.53 4.45C11.82 4.75 11.82 5.22 11.53 5.52L9.05 7.99L11.53 10.47C11.82 10.76 11.82 11.23 11.53 11.53C11.23 11.82 10.76 11.82 10.47 11.53L7.99 9.05L5.52 11.53Z" fill="#FFFFFF" fill-opacity="0.950000" fill-rule="evenodd"/>
	</g>
</svg>
