<svg width="24.000000" height="24.000000" viewBox="0 0 24 24" fill="none" xmlns="http://www.w3.org/2000/svg" xmlns:xlink="http://www.w3.org/1999/xlink">
	<desc>
			Created with Pixso.
	</desc>
	<defs>
		<clipPath id="clip38_1318">
			<rect id="ic_public_resetting" width="24.000000" height="24.000000" fill="white" fill-opacity="0"/>
		</clipPath>
	</defs>
	<g clip-path="url(#clip38_1318)">
		<rect id="ic_public_resetting-重置/base/ic_public_resetting" width="24.000000" height="24.000000" fill="#FFFFFF" fill-opacity="0"/>
		<path id="path1" d="M0 11.99C0 10.11 -0.01 8.24 0 6.36C-0.01 5.45 0.1 4.55 0.33 3.67C0.82 1.81 2.03 0.71 3.89 0.28C4.82 0.08 5.78 -0.02 6.72 6.1e-5C10.32 6.1e-5 13.92 6.1e-5 17.52 6.1e-5C18.42 -0.01 19.33 0.09 20.21 0.31C22.13 0.77 23.28 1.99 23.71 3.9C23.91 4.8 24 5.72 23.99 6.64C23.99 10.28 23.99 13.91 23.99 17.54C24 18.44 23.9 19.34 23.69 20.22C23.22 22.13 22 23.27 20.09 23.71C19.16 23.91 18.21 24.01 17.25 23.99C13.67 23.99 10.09 23.99 6.51 23.99C5.59 24 4.69 23.9 3.8 23.69C1.87 23.22 0.71 22 0.28 20.08C0.06 19.11 0 18.13 0 17.15C0 15.43 0 13.71 0 11.99Z" fill="#FFFFFF" fill-opacity="0" fill-rule="evenodd"/>
		<circle id="path2" cx="12.000000" cy="12.000000" r="11.000000" fill="#E02128" fill-opacity="1.000000"/>
		<path id="path3" d="" fill="#000000" fill-opacity="0" fill-rule="nonzero"/>
		<path id="path3" d="M11.04 16.06L12 17.37C9.03 17.37 6.62 14.96 6.62 12C6.62 9.03 9.03 6.62 12 6.62C14.96 6.62 17.37 9.03 17.37 12C17.37 13.38 16.85 14.64 15.99 15.6" stroke="#FFFFFF" stroke-opacity="0" stroke-width="1.000000" stroke-linejoin="round" stroke-linecap="round"/>
		<path id="path4" d="M11.49 16.85L10.88 16.01C10.8 15.9 10.82 15.75 10.93 15.67C11.05 15.58 11.2 15.61 11.29 15.72L12.2 16.97C12.24 17.03 12.25 17.09 12.24 17.16C12.23 17.23 12.2 17.28 12.14 17.32C12.12 17.34 12.1 17.35 12.07 17.36C12.05 17.37 12.02 17.37 12 17.37C11.25 17.37 10.56 17.24 9.93 16.98C9.3 16.71 8.71 16.32 8.19 15.8C7.67 15.27 7.28 14.69 7.01 14.06C6.75 13.42 6.62 12.74 6.62 12C6.62 11.25 6.75 10.57 7.01 9.93C7.28 9.29 7.67 8.71 8.19 8.19C8.71 7.66 9.3 7.28 9.93 7.01C10.56 6.75 11.25 6.62 12 6.62C12.74 6.62 13.42 6.75 14.06 7.01C14.69 7.28 15.27 7.66 15.8 8.19C16.32 8.71 16.71 9.29 16.98 9.93C17.24 10.57 17.37 11.25 17.37 12C17.37 12.69 17.25 13.33 17.02 13.93C16.79 14.53 16.45 15.09 15.99 15.6C15.89 15.7 15.74 15.71 15.63 15.61C15.53 15.52 15.52 15.36 15.62 15.26C16.03 14.8 16.34 14.3 16.55 13.75C16.76 13.21 16.87 12.62 16.87 12C16.87 11.32 16.75 10.7 16.51 10.12C16.28 9.54 15.92 9.02 15.44 8.54C14.97 8.07 14.44 7.71 13.87 7.47C13.29 7.23 12.67 7.12 12 7.12C11.32 7.12 10.7 7.23 10.12 7.47C9.55 7.71 9.02 8.07 8.55 8.54C8.07 9.02 7.71 9.54 7.47 10.12C7.23 10.7 7.12 11.32 7.12 12C7.12 12.67 7.23 13.29 7.47 13.87C7.71 14.44 8.07 14.97 8.55 15.44C9.02 15.92 9.55 16.28 10.12 16.51C10.55 16.69 11.01 16.8 11.49 16.85Z" fill="#FFFFFF" fill-opacity="1.000000" fill-rule="evenodd"/>
		<path id="path4" d="M10.88 16.01C10.8 15.9 10.82 15.75 10.93 15.67C11.05 15.58 11.2 15.61 11.29 15.72L12.2 16.97C12.24 17.03 12.25 17.09 12.24 17.16C12.23 17.23 12.2 17.28 12.14 17.32C12.12 17.34 12.1 17.35 12.07 17.36C12.05 17.37 12.02 17.37 12 17.37C11.25 17.37 10.56 17.24 9.93 16.98C9.3 16.71 8.71 16.32 8.19 15.8C7.67 15.27 7.28 14.69 7.01 14.06C6.75 13.42 6.62 12.74 6.62 12C6.62 11.25 6.75 10.57 7.01 9.93C7.28 9.29 7.67 8.71 8.19 8.19C8.71 7.66 9.3 7.28 9.93 7.01C10.56 6.75 11.25 6.62 12 6.62C12.74 6.62 13.42 6.75 14.06 7.01C14.69 7.28 15.27 7.66 15.8 8.19C16.32 8.71 16.71 9.29 16.98 9.93C17.24 10.57 17.37 11.25 17.37 12C17.37 12.69 17.25 13.33 17.02 13.93C16.79 14.53 16.45 15.09 15.99 15.6C15.89 15.7 15.74 15.71 15.63 15.61C15.53 15.52 15.52 15.36 15.62 15.26C16.03 14.8 16.34 14.3 16.55 13.75C16.76 13.21 16.87 12.62 16.87 12C16.87 11.32 16.75 10.7 16.51 10.12C16.28 9.54 15.92 9.02 15.44 8.54C14.97 8.07 14.44 7.71 13.87 7.47C13.29 7.23 12.67 7.12 12 7.12C11.32 7.12 10.7 7.23 10.12 7.47C9.55 7.71 9.02 8.07 8.55 8.54C8.07 9.02 7.71 9.54 7.47 10.12C7.23 10.7 7.12 11.32 7.12 12C7.12 12.67 7.23 13.29 7.47 13.87C7.71 14.44 8.07 14.97 8.55 15.44C9.02 15.92 9.55 16.28 10.12 16.51C10.55 16.69 11.01 16.8 11.49 16.85L10.88 16.01Z" fill="#000000" fill-opacity="0" fill-rule="nonzero"/>
		<path id="path4" d="M10.93 15.67C11.05 15.58 11.2 15.61 11.29 15.72L12.2 16.97C12.24 17.03 12.25 17.09 12.24 17.16C12.23 17.23 12.2 17.28 12.14 17.32C12.12 17.34 12.1 17.35 12.07 17.36C12.05 17.37 12.02 17.37 12 17.37C11.25 17.37 10.56 17.24 9.93 16.98C9.3 16.71 8.71 16.32 8.19 15.8C7.67 15.27 7.28 14.69 7.01 14.06C6.75 13.42 6.62 12.74 6.62 12C6.62 11.25 6.75 10.57 7.01 9.93C7.28 9.29 7.67 8.71 8.19 8.19C8.71 7.66 9.3 7.28 9.93 7.01C10.56 6.75 11.25 6.62 12 6.62C12.74 6.62 13.42 6.75 14.06 7.01C14.69 7.28 15.27 7.66 15.8 8.19C16.32 8.71 16.71 9.29 16.98 9.93C17.24 10.57 17.37 11.25 17.37 12C17.37 12.69 17.25 13.33 17.02 13.93C16.79 14.53 16.45 15.09 15.99 15.6C15.89 15.7 15.74 15.71 15.63 15.61C15.53 15.52 15.52 15.36 15.62 15.26C16.03 14.8 16.34 14.3 16.55 13.75C16.76 13.21 16.87 12.62 16.87 12C16.87 11.32 16.75 10.7 16.51 10.12C16.28 9.54 15.92 9.02 15.44 8.54C14.97 8.07 14.44 7.71 13.87 7.47C13.29 7.23 12.67 7.12 12 7.12C11.32 7.12 10.7 7.23 10.12 7.47C9.55 7.71 9.02 8.07 8.55 8.54C8.07 9.02 7.71 9.54 7.47 10.12C7.23 10.7 7.12 11.32 7.12 12C7.12 12.67 7.23 13.29 7.47 13.87C7.71 14.44 8.07 14.97 8.55 15.44C9.02 15.92 9.55 16.28 10.12 16.51C10.55 16.69 11.01 16.8 11.49 16.85L10.88 16.01C10.8 15.9 10.82 15.75 10.93 15.67Z" stroke="#FFFFFF" stroke-opacity="1.000000" stroke-width="1.000000"/>
	</g>
</svg>
