<svg width="36.000000" height="36.000000" viewBox="0 0 36 36" fill="none" xmlns="http://www.w3.org/2000/svg" xmlns:xlink="http://www.w3.org/1999/xlink">
	<desc>
			Created with Pixso.
	</desc>
	<defs>
		<clipPath id="clip1_2098">
			<rect width="36.000000" height="36.000000" fill="white" fill-opacity="0"/>
		</clipPath>
	</defs>
	<g clip-path="url(#clip1_2098)">
		<path d="M8.37 35.25L27.61 35.25C28.34 35.25 29.01 35.12 29.63 34.86C30.25 34.6 30.81 34.22 31.32 33.71C31.84 33.19 32.22 32.63 32.48 32.01C32.73 31.39 32.86 30.72 32.86 30L32.86 10.64L32.86 10.64L32.86 10.53C32.86 10.32 32.82 10.23 32.68 10.08Q32.67 10.08 32.67 10.08L23.59 0.93L23.58 0.93C23.51 0.86 23.5 0.84 23.41 0.8C23.33 0.76 23.23 0.75 23.12 0.75L8.37 0.75C7.64 0.75 6.97 0.87 6.35 1.13C5.73 1.39 5.17 1.77 4.65 2.28Q3.89 3.05 3.5 3.97C3.24 4.59 3.12 5.27 3.12 6L3.12 30C3.12 30.72 3.24 31.38 3.5 32C3.75 32.62 4.14 33.19 4.65 33.71C5.68 34.73 6.92 35.25 8.37 35.25ZM26.02 11.39L31.36 11.39L31.36 30Q31.36 31.87 30.42 32.81Q29.49 33.75 27.61 33.75L8.37 33.75Q6.49 33.75 5.55 32.81Q4.62 31.87 4.62 30L4.62 6Q4.62 4.12 5.55 3.18Q6.49 2.25 8.37 2.25L22.27 2.25L22.27 7.64Q22.27 9.52 23.21 10.46Q24.15 11.39 26.02 11.39ZM23.77 3.21L30.43 9.89L26.02 9.89C25.85 9.89 25.68 9.88 25.52 9.84C25.39 9.81 25.27 9.77 25.14 9.72C24.88 9.6 24.64 9.44 24.43 9.23C24.32 9.12 24.22 9 24.13 8.86C24.06 8.75 23.98 8.62 23.93 8.49L23.93 8.49Q23.9 8.43 23.88 8.36C23.86 8.29 23.84 8.21 23.82 8.13C23.79 7.97 23.77 7.81 23.77 7.64L23.77 3.21ZM20.22 12.04L8.33 12.04C7.91 12.04 7.58 12.37 7.58 12.79C7.58 13.21 7.91 13.54 8.33 13.54L20.22 13.54C20.64 13.54 20.97 13.21 20.97 12.79C20.97 12.37 20.64 12.04 20.22 12.04ZM15.76 19.47L8.33 19.47C7.91 19.47 7.58 19.8 7.58 20.22C7.58 20.64 7.91 20.97 8.33 20.97L15.76 20.97C16.18 20.97 16.51 20.64 16.51 20.22C16.51 19.8 16.18 19.47 15.76 19.47Z" fill="#191919" fill-opacity="1.000000" fill-rule="evenodd"/>
	</g>
</svg>
