<svg width="36.000000" height="36.000000" viewBox="0 0 36 36" fill="none" xmlns="http://www.w3.org/2000/svg" xmlns:xlink="http://www.w3.org/1999/xlink">
	<desc>
			Created with Pixso.
	</desc>
	<defs>
		<clipPath id="clip1_2128">
			<rect width="36.000000" height="36.000000" fill="white" fill-opacity="0"/>
		</clipPath>
	</defs>
	<g clip-path="url(#clip1_2128)">
		<path d="M8.37 35.25L27.61 35.25C28.34 35.25 29.01 35.12 29.63 34.86C30.25 34.6 30.81 34.22 31.32 33.71C31.84 33.19 32.22 32.63 32.48 32.01C32.73 31.39 32.86 30.72 32.86 30L32.86 10.64C32.86 10.39 32.8 10.21 32.67 10.08C32.55 9.96 32.36 9.89 32.11 9.89L26.02 9.89C25.4 9.89 24.87 9.67 24.43 9.23C24.21 9.01 24.04 8.76 23.93 8.49C23.82 8.23 23.77 7.95 23.77 7.64L23.77 1.5C23.77 1.25 23.71 1.06 23.58 0.93C23.46 0.81 23.27 0.75 23.02 0.75L8.37 0.75C7.64 0.75 6.97 0.87 6.35 1.13C5.73 1.39 5.17 1.77 4.65 2.28C4.14 2.79 3.76 3.36 3.5 3.97C3.24 4.59 3.12 5.27 3.12 6L3.12 30C3.12 30.72 3.24 31.38 3.5 32C3.75 32.62 4.14 33.19 4.65 33.71C5.68 34.73 6.92 35.25 8.37 35.25ZM30.42 32.81C29.8 33.43 28.86 33.75 27.61 33.75L8.37 33.75C7.12 33.75 6.18 33.43 5.55 32.81C4.93 32.18 4.62 31.25 4.62 30L4.62 6C4.62 4.75 4.93 3.81 5.55 3.18C6.18 2.56 7.12 2.25 8.37 2.25L22.27 2.25L22.27 7.64C22.27 10.14 23.52 11.39 26.02 11.39L31.36 11.39L31.36 30C31.36 31.25 31.05 32.18 30.42 32.81Z" fill="#191919" fill-opacity="1.000000" fill-rule="evenodd"/>
		<path d="M24.56 11.1C25.02 11.3 25.51 11.39 26.02 11.39L32.11 11.39C32.36 11.39 32.55 11.33 32.67 11.21C32.8 11.08 32.86 10.89 32.86 10.64L32.86 10.52C32.86 10.32 32.79 10.14 32.64 10L23.66 0.97C23.58 0.89 23.5 0.84 23.41 0.8C23.33 0.76 23.23 0.75 23.12 0.75L23.02 0.75C22.77 0.75 22.58 0.81 22.46 0.93C22.33 1.06 22.27 1.25 22.27 1.5L22.27 7.64C22.27 7.91 22.3 8.17 22.35 8.43C22.4 8.66 22.47 8.88 22.56 9.1C22.65 9.31 22.76 9.51 22.89 9.7C23.02 9.91 23.19 10.11 23.37 10.29C23.55 10.48 23.75 10.64 23.96 10.78C24.15 10.9 24.35 11.01 24.56 11.1ZM30.43 9.89L26.02 9.89C25.85 9.89 25.68 9.88 25.52 9.84C25.39 9.81 25.27 9.77 25.15 9.72C24.88 9.6 24.64 9.44 24.43 9.23C24.32 9.12 24.22 9 24.13 8.86C24.06 8.75 24 8.64 23.95 8.52C23.89 8.39 23.85 8.26 23.82 8.13C23.79 7.97 23.77 7.81 23.77 7.64L23.77 3.21L30.43 9.89Z" fill="#191919" fill-opacity="1.000000" fill-rule="evenodd"/>
		<path d="M32.5 18L3.5 18L3.5 28L32.5 28L32.5 18ZM14.47 26.27L18.4 20.19L18.4 19.76L13.54 19.76L13.54 20.54L17.16 20.54L13.24 26.64L13.24 27.08L18.53 27.08L18.53 26.27L14.47 26.27ZM19.62 19.76L19.62 27.08L20.52 27.08L20.52 19.76L19.62 19.76ZM26.89 22.94C27.01 22.66 27.08 22.36 27.08 22.02C27.08 21.71 27.02 21.41 26.9 21.14C26.86 21.04 26.8 20.94 26.74 20.85C26.68 20.75 26.62 20.67 26.54 20.58C26.35 20.36 26.11 20.19 25.83 20.05C25.44 19.85 25 19.76 24.51 19.76L22.25 19.76L22.25 27.08L23.15 27.08L23.15 24.29L24.51 24.29C25 24.29 25.45 24.19 25.84 24C26.12 23.86 26.36 23.69 26.55 23.47C26.62 23.38 26.69 23.3 26.75 23.2C26.8 23.12 26.85 23.03 26.89 22.94ZM25.67 23.09C25.37 23.37 24.95 23.5 24.39 23.5L23.15 23.5L23.15 20.54L24.39 20.54C24.94 20.54 25.37 20.67 25.67 20.95C25.79 21.07 25.88 21.19 25.96 21.33C26.06 21.54 26.11 21.77 26.11 22.02C26.11 22.29 26.06 22.52 25.95 22.73C25.88 22.86 25.79 22.98 25.67 23.09Z" fill="#000000" fill-opacity="1.000000" fill-rule="evenodd"/>
	</g>
</svg>
